<?xml version="1.0" encoding="UTF-8"?>
<svg width="74px" height="85px" viewBox="0 0 74 85" version="1.1" xmlns="http://www.w3.org/2000/svg" xmlns:xlink="http://www.w3.org/1999/xlink">
    <!-- Generator: sketchtool 51.2 (57519) - http://www.bohemiancoding.com/sketch -->
    <title>32FC04A7-472C-4D74-8225-6F28B5CFD7FD</title>
    <desc>Created with sketchtool.</desc>
    <defs></defs>
    <g id="Welcome" stroke="none" stroke-width="1" fill="none" fill-rule="evenodd">
        <g id="Desktop" transform="translate(-479.000000, -10501.000000)" fill="#5B616B" fill-rule="nonzero">
            <g id="How-Algebra-I-is-used-in-ESSA" transform="translate(125.000000, 10501.000000)">
                <g id="backpack" transform="translate(354.000000, 0.000000)">
                    <path d="M52.8571429,10.625 L50.2142857,10.625 L50.2142857,7.96875 C50.2142857,3.57431641 46.6579911,0 42.2857143,0 L31.7142857,0 C27.3420089,0 23.7857143,3.57431641 23.7857143,7.96875 L23.7857143,10.625 L21.1428571,10.625 C9.46638393,10.625 0,20.1393555 0,31.875 L0,74.375 C0,80.2436523 4.73236607,85 10.5714286,85 L63.4285714,85 C69.2676339,85 74,80.2436523 74,74.375 L74,31.875 C74,20.1393555 64.5336161,10.625 52.8571429,10.625 Z M29,7.5 C29,6.1203125 30.1983333,5 31.6666667,5 L42.3333333,5 C43.8016667,5 45,6.1203125 45,7.5 L45,10 L29,10 L29,7.5 Z M55,80 L18,80 L18,64 L55,64 L55,80 Z M55,59 L18,59 L18,53.5 C18,50.4629687 20.3670089,48 23.2857143,48 L49.7142857,48 C52.6329911,48 55,50.4629687 55,53.5 L55,59 Z M68,74.6666667 C68,77.6066667 65.6440625,80 62.75,80 L60.125,80 L60.125,53.3333333 C60.125,47.4516667 55.4147656,42.6666667 49.625,42.6666667 L23.375,42.6666667 C17.5852344,42.6666667 12.875,47.4516667 12.875,53.3333333 L12.875,80 L10.25,80 C7.3559375,80 5,77.6066667 5,74.6666667 L5,32 C5,23.1766667 12.0645312,16 20.75,16 L52.25,16 C60.9354687,16 68,23.1766667 68,32 L68,74.6666667 Z M51.6666667,27 L22.3333333,27 C21.5966667,27 21,27.559375 21,28.25 L21,30.75 C21,31.440625 21.5966667,32 22.3333333,32 L51.6666667,32 C52.4033333,32 53,31.440625 53,30.75 L53,28.25 C53,27.559375 52.4033333,27 51.6666667,27 Z" id="Shape"></path>
                </g>
            </g>
        </g>
    </g>
</svg>