<?xml version="1.0" encoding="UTF-8"?>
<svg width="81px" height="70px" viewBox="0 0 81 70" version="1.1" xmlns="http://www.w3.org/2000/svg" xmlns:xlink="http://www.w3.org/1999/xlink">
    <!-- Generator: sketchtool 51.2 (57519) - http://www.bohemiancoding.com/sketch -->
    <title>4458F22A-B7CF-4D00-9B4C-496C39991FCB</title>
    <desc>Created with sketchtool.</desc>
    <defs></defs>
    <g id="Welcome" stroke="none" stroke-width="1" fill="none" fill-rule="evenodd">
        <g id="Desktop" transform="translate(-475.000000, -2648.000000)" fill="#5B616B" fill-rule="nonzero">
            <g id="Closer-look-divider" transform="translate(129.000000, 2648.000000)">
                <g id="binoculars" transform="translate(346.000000, 0.000000)">
                    <path d="M80.3368662,57.6390369 C79.7936146,37.5319997 70.7498882,29.414502 70.3526551,14.877689 C70.2788608,12.1444831 68.1121347,9.91639344 65.3409233,9.91639344 L65.3158019,9.91639344 L65.3158019,4.95819672 C65.3158019,2.22034247 63.0658609,0 60.2915094,0 L50.2429245,0 C47.468573,0 45.2186321,2.22034247 45.2186321,4.95819672 L45.2186321,9.91639344 L35.1700472,9.91639344 L35.1700472,4.95819672 C35.1700472,2.22034247 32.9201062,0 30.1457547,0 L20.0971698,0 C17.3228183,0 15.0728774,2.22034247 15.0728774,4.95819672 L15.0728774,9.91639344 L15.0477559,9.91639344 C12.2765446,9.91639344 10.1098185,12.1444831 10.0344541,14.877689 C9.63879105,29.414502 0.595064637,37.5319997 0.0518130159,57.6390369 L0,61.977459 C0,66.0850151 3.3741264,69.4147541 7.53643868,69.4147541 L27.6336085,69.4147541 C31.7959208,69.4147541 35.1700472,66.0850151 35.1700472,61.977459 L35.1700472,39.6655738 L45.2186321,39.6655738 L45.2186321,61.977459 C45.2186321,66.0850151 48.5927585,69.4147541 52.7550708,69.4147541 L72.8522406,69.4147541 C77.0145528,69.4147541 80.3886792,66.0850151 80.3886792,61.977459 L80.3368662,57.6390369 Z M49.8183364,4.47837123 L58.8762158,4.47837123 L58.8762158,8.95674246 L49.8183364,8.95674246 L49.8183364,4.47837123 Z M20.3802285,4.47837123 L30.5703428,4.47837123 L30.5703428,8.95674246 L20.3802285,8.95674246 L20.3802285,4.47837123 Z M29.4381079,60.4580116 C29.4381079,61.6923627 28.320309,62.6971973 26.9471911,62.6971973 L7.0198565,62.6971973 C5.6467386,62.6971973 4.52893968,61.6923627 4.52893968,60.4580116 C4.52893968,60.4580116 4.67528104,54.6837117 4.75934948,53.7404548 L29.4381079,53.7404548 L29.4381079,60.4580116 Z M29.4381079,50.3816764 L5.66117459,50.3816764 C6.64290404,44.512411 8.367855,39.7695859 10.0712633,35.1631113 C12.2239898,29.3372302 14.4505768,23.3130211 14.6413832,15.6742993 L29.4381079,15.6742993 L29.4381079,50.3816764 Z M35.0992825,35.8269699 L35.0992825,15.6742993 L44.1571618,15.6742993 L44.1571618,35.8269699 L35.0992825,35.8269699 Z M49.8183364,15.6742993 L64.6150612,15.6742993 L64.6058286,15.8106497 C64.8058675,23.3130211 67.0324545,29.3372302 69.185181,35.1631113 C70.8870506,39.7695859 72.6135403,44.5108616 73.5952697,50.3816764 L49.8183364,50.3816764 L49.8183364,15.6742993 Z M74.7275047,60.4580116 C74.7275047,61.6923627 73.6097057,62.6971973 72.2365878,62.6971973 L52.3092533,62.6971973 C50.9361354,62.6971973 49.8183364,61.6923627 49.8183364,60.4580116 L49.8183364,53.7404548 L74.4970948,53.7404548 C74.5811633,54.6837117 74.7275047,60.4580116 74.7275047,60.4580116 Z" id="Shape"></path>
                </g>
            </g>
        </g>
    </g>
</svg>