<?xml version="1.0" encoding="UTF-8"?>
<svg width="103px" height="80px" viewBox="0 0 103 80" version="1.1" xmlns="http://www.w3.org/2000/svg" xmlns:xlink="http://www.w3.org/1999/xlink">
    <!-- Generator: sketchtool 51.2 (57519) - http://www.bohemiancoding.com/sketch -->
    <title>28CB3093-62E0-4B4E-BD41-12DF19F0A1AC</title>
    <desc>Created with sketchtool.</desc>
    <defs></defs>
    <g id="Welcome" stroke="none" stroke-width="1" fill="none" fill-rule="evenodd">
        <g id="Desktop" transform="translate(-464.000000, -10551.000000)" fill="#5B616B" fill-rule="nonzero">
            <g id="What-Research-Says-Divider" transform="translate(125.000000, 10551.000000)">
                <g id="book-open" transform="translate(339.000000, 0.000000)">
                    <path d="M92.0775183,0 L92.0489067,0 C87.7428597,0.0214285714 66.1643428,1.57678571 52.786628,8.5875 C52.0623967,8.96607143 50.9393911,8.96607143 50.2151597,8.5875 C36.8356567,1.57678571 15.2571398,0.0214285714 10.9528811,0 L10.9242695,0 C4.89973782,0 0,4.72678571 0,10.5375 L0,63.5196429 C0,69.1285714 4.54388095,73.7482143 10.3448844,74.0375 C16.5625444,74.3517857 32.1666,75.5125 42.8709177,79.4607143 C43.8133125,79.8089286 44.7735896,80 45.7767841,80 L57.2214272,80 C58.2264099,80 59.186687,79.8071429 60.1290818,79.4607143 C70.8351878,75.5125 86.4374551,74.3517857 92.6604798,74.0375 C98.4561186,73.7482143 103,69.1303571 103,63.5214286 L103,10.5375 C103.001788,4.72678571 98.1020499,0 92.0775183,0 Z M48.6397331,71.6071429 C48.6397331,73.1446429 47.3629401,74.3089286 45.910901,74.3089286 C45.5943851,74.3089286 45.2689281,74.2535714 44.9470475,74.1339286 C33.7795793,69.9892857 18.304276,68.7178571 10.6292123,68.3285714 C7.87713325,68.1910714 5.72232154,66.0785714 5.72232154,63.5196429 L5.72232154,10.5375 C5.72232154,7.87857143 8.05774402,5.71607143 10.9242695,5.71607143 C14.3719682,5.73392857 32.8228787,7.03392857 45.2796574,12.5535714 C47.2931993,13.4464286 48.6129097,15.3660714 48.6164862,17.525 L48.6397331,35.4392857 L48.6397331,71.6071429 Z M97.2794662,63.5196429 C97.2794662,66.0785714 95.1246545,68.1910714 92.3707872,68.3285714 C84.6957235,68.7178571 69.2204202,69.9892857 58.052952,74.1339286 C57.7310714,74.2535714 57.4056144,74.3089286 57.0890985,74.3089286 C55.6388476,74.3089286 54.3602664,73.1446429 54.3602664,71.6071429 L54.3602664,35.4392857 L54.3835133,17.525 C54.3853016,15.3660714 55.7068002,13.4464286 57.7203421,12.5535714 C70.1771208,7.03392857 88.6280313,5.73392857 92.07573,5.71607143 C94.9422555,5.71607143 97.277678,7.87857143 97.277678,10.5375 L97.277678,63.5196429 L97.2794662,63.5196429 Z" id="Shape"></path>
                </g>
            </g>
        </g>
    </g>
</svg>