<?xml version="1.0" encoding="UTF-8"?>
<svg width="91px" height="120px" viewBox="0 0 91 120" version="1.1" xmlns="http://www.w3.org/2000/svg" xmlns:xlink="http://www.w3.org/1999/xlink">
    <!-- Generator: sketchtool 51.2 (57519) - http://www.bohemiancoding.com/sketch -->
    <title>9FD333F1-8ECB-4519-ACA5-34BB1857B3BD</title>
    <desc>Created with sketchtool.</desc>
    <defs></defs>
    <g id="Welcome" stroke="none" stroke-width="1" fill="none" fill-rule="evenodd">
        <g id="Desktop" transform="translate(-470.000000, -13139.000000)" fill="#5B616B" fill-rule="nonzero">
            <g id="Data-Notes" transform="translate(125.000000, 13139.000000)">
                <g id="clipboard-list" transform="translate(345.000000, 0.000000)">
                    <path d="M67.0625,56 L39.9375,56 C38.871875,56 38,56.7875 38,57.75 L38,61.25 C38,62.2125 38.871875,63 39.9375,63 L67.0625,63 C68.128125,63 69,62.2125 69,61.25 L69,57.75 C69,56.7875 68.128125,56 67.0625,56 Z M67.0625,79 L39.9375,79 C38.871875,79 38,79.7875 38,80.75 L38,84.25 C38,85.2125 38.871875,86 39.9375,86 L67.0625,86 C68.128125,86 69,85.2125 69,84.25 L69,80.75 C69,79.7875 68.128125,79 67.0625,79 Z M27,54 C23.675,54 21,56.675 21,60 C21,63.325 23.675,66 27,66 C30.325,66 33,63.325 33,60 C33,56.675 30.325,54 27,54 Z M27,76 C23.675,76 21,78.675 21,82 C21,85.325 23.675,88 27,88 C30.325,88 33,85.325 33,82 C33,78.675 30.325,76 27,76 Z M79.625,15 L58.6286458,15 C58.7234375,14.390625 58.7708333,13.7578125 58.7708333,13.125 C58.7708333,5.8828125 52.8226563,0 45.5,0 C38.1773437,0 32.2291667,5.8828125 32.2291667,13.125 C32.2291667,13.7578125 32.2765625,14.390625 32.3713542,15 L11.375,15 C5.09505208,15 0,20.0390625 0,26.25 L0,108.75 C0,114.960938 5.09505208,120 11.375,120 L79.625,120 C85.9049479,120 91,114.960938 91,108.75 L91,26.25 C91,20.0390625 85.9049479,15 79.625,15 Z M46,7 C49.325,7 52,9.675 52,13 C52,16.325 49.325,19 46,19 C42.675,19 40,16.325 40,13 C40,9.675 42.675,7 46,7 Z M83,107.291667 C83,109.33125 81.29,111 79.2,111 L10.8,111 C8.71,111 7,109.33125 7,107.291667 L7,25.7083333 C7,23.66875 8.71,22 10.8,22 L22.2,22 L22.2,26.6354167 C22.2,28.1651042 23.4825,29.4166667 25.05,29.4166667 L64.95,29.4166667 C66.5175,29.4166667 67.8,28.1651042 67.8,26.6354167 L67.8,22 L79.2,22 C81.29,22 83,23.66875 83,25.7083333 L83,107.291667 Z" id="Shape"></path>
                </g>
            </g>
        </g>
    </g>
</svg>