<?xml version="1.0" encoding="utf-8"?>
<!-- Generator: Adobe Illustrator 22.1.0, SVG Export Plug-In . SVG Version: 6.00 Build 0)  -->
<svg version="1.1" id="Layer_1" xmlns="http://www.w3.org/2000/svg" xmlns:xlink="http://www.w3.org/1999/xlink" x="0px" y="0px"
	 viewBox="0 0 93.4 93.4" style="enable-background:new 0 0 93.4 93.4;" xml:space="preserve">
<style type="text/css">
	.st0{fill:none;stroke:#FFFFFF;stroke-width:1.69;}
	.st1{fill:none;stroke:#FFFFFF;stroke-width:1.24;}
	.st2{fill:none;stroke:#FFFFFF;stroke-width:0.62;}
	.st3{fill:none;stroke:#FFFFFF;stroke-width:0.31;}
	.st4{fill:#FFFFFF;}
</style>
<title>Artboard 2</title>
<g>
	<ellipse transform="matrix(0.9874 -0.1584 0.1584 0.9874 -6.8062 7.9852)" class="st0" cx="46.7" cy="46.7" rx="45.8" ry="45.8"/>
	<circle class="st1" cx="46.8" cy="46.6" r="34.2"/>
	<path class="st2" d="M33.7,74.7c0,0-0.5-10.9,11.7-12.8"/>
	<path class="st2" d="M53,63.4c3.9,2.2,6.4,6.2,6.8,10.7"/>
	<path class="st3" d="M45.4,69c-0.3,0.3-0.7,0.5-1.1,0.7"/>
	<path class="st3" d="M46.2,69.2c-0.5,0.6-1.3,1-2,1.2"/>
	<path class="st3" d="M47.2,69.2c0,0-1.1,2.1-2.7,2.1"/>
	<path class="st3" d="M48,69.1c0,0-0.2,2.4-2.3,2.7"/>
	<path class="st3" d="M48.6,69.2c0.2,1.1-0.3,2.3-1.4,2.7"/>
	<path class="st3" d="M47.9,69.1c0.3,0.3,0.7,0.5,1.1,0.6"/>
	<path class="st3" d="M47.2,69.2c0.4,0.6,1.1,1.1,1.8,1.2"/>
	<path class="st3" d="M46.2,69.2c0,0,0.9,2,2.5,2"/>
	<path class="st3" d="M45.6,69.1c0,0,0.2,2.5,2.3,2.9"/>
	<path class="st3" d="M44.7,68.8c0,0-0.1,2.4,1.4,3.3"/>
	<polyline class="st4" points="43.1,55.6 44.3,62.2 45,62.1 44.1,56.1 	"/>
	<path class="st4" d="M85.4,57.6h1.7l-1.4,1l0.5,1.6l0,0l-1.4-1l-1.4,1l0,0l0.5-1.6l-1.4-1h1.7l0.5-1.6l0,0L85.4,57.6z"/>
	<path class="st4" d="M9.3,57.6H11l-1.4,1l0.5,1.6l0,0l-1.4-1l-1.4,1l0,0L8,58.6l-1.4-1h1.7L8.8,56l0,0L9.3,57.6z"/>
	<polygon class="st4" points="57.5,67.5 80.3,51.8 79.7,54 57.7,68 	"/>
	<polygon class="st4" points="58.7,69.8 77.5,60.9 76.8,62.6 58.9,70.2 	"/>
	<polygon class="st4" points="59.3,71.9 72.1,69.2 70.9,70.5 59.4,72.4 	"/>
	<polygon class="st4" points="55.8,65.6 57,64.2 57.5,64.7 56.1,65.9 	"/>
	<polygon class="st4" points="53.8,63.9 56.1,60.8 56.2,61.7 54.3,64.2 	"/>
	<polyline class="st4" points="76.3,44.3 80.2,40.4 80.5,42.3 77.2,45.5 	"/>
	<polyline class="st4" points="73.2,36.5 77,31.2 75.9,29.2 72.2,35 	"/>
	<polyline class="st4" points="42,62.8 40.8,60.4 41.3,59.6 42.4,62.7 42,62.8 	"/>
	<polygon class="st4" points="39.5,62.7 40.1,63.7 39.6,64 39,63.3 	"/>
	<polygon class="st4" points="37.1,64.1 37.9,65.2 37.5,65.5 36.3,64.3 	"/>
	<polygon class="st4" points="31.3,63.7 36.1,67 35.8,67.7 30.8,64.2 	"/>
	<polygon class="st4" points="24.6,59.1 13.3,51.3 13.6,53.2 25.1,60.8 	"/>
	<polygon class="st4" points="13.6,40.2 19.2,45.7 18.4,47 13.1,42.1 	"/>
	<polygon class="st4" points="16.4,31.1 19.8,35.5 20.9,34.1 17.8,29.1 	"/>
	<polygon class="st4" points="16.6,62 17.5,63.5 34.7,69.9 34.9,69.2 	"/>
	<polygon class="st4" points="21.4,69.4 34.1,72 33.9,72.6 22.3,70.5 	"/>
	<polyline class="st4" points="66.1,26.8 67.9,26.5 70.1,21.7 68.4,20.3 65.8,26.4 	"/>
	<polygon class="st4" points="59.7,15.2 57.7,14.5 56.7,20.6 58.5,20.8 	"/>
	<polygon class="st4" points="23.7,21.8 26.5,26.9 28.3,26.4 26,19.8 	"/>
	<polygon class="st4" points="36.2,21.4 34.8,15 37.3,14.1 37.9,20.9 	"/>
	<polygon class="st4" points="47.9,12.5 47.8,18.3 46,18.8 46,12.6 	"/>
	<polyline class="st4" points="53.7,57.3 54.1,58.7 56.2,54.9 55.5,54.9 54,57.8 	"/>
	<path class="st4" d="M34.8,22L34.8,22L34.8,22L34.8,22z M34.9,22C35.5,22.1,35.3,21.9,34.9,22z M18.8,43.9c0,0,0-0.1,0-0.1
		C18.8,43.8,18.8,43.9,18.8,43.9z M76.9,44.7c-0.5-0.4-1-0.6-1.6-0.6c-0.5,0,0.2-1.2-0.6-1.6c0.9-0.8-0.1-2,0.1-2.9
		c0.1-0.4,0.3-0.8,0-1.2c-0.5-0.7-1.4-0.4-1.5-1.6c0-0.3-0.6-0.6-0.5-0.9c0.4-1.3-1.1-1.1-1.9-1.5c0.5-0.5,0-1-0.3-1.3l-0.1,0
		c0.3-0.3,0.6-0.4,1-0.4c-0.2-0.6,0.5-0.9,0.3-1.5c-0.2-0.9-1.1-1-1.9-1c-0.1,0-0.3,0.3-0.4,0.3c-0.8-0.1-0.3-0.7-0.4-1.3
		c0-0.2-0.2-0.3-0.4-0.4c1-0.5,0.5-1.9-0.1-2.4c-0.5-0.5-1.3-0.6-1.8-0.1c0,0-0.1,0.1-0.1,0.1c-0.1-0.2-0.5,0.2-0.6-0.1
		c0-0.1-0.2,0.1-0.3,0.2s-0.4-0.1-0.3-0.1c0.8-0.7,0.3-1.9,0-2.5c-0.5-0.7-2-0.3-2.1,0.9c-0.5-0.2-0.6-0.7-1.2-0.8
		c-0.2,0-0.3,0.1-0.4,0.2c-0.2-0.3-0.1-0.5-0.3-0.8c0.8-0.1,1.1-1.3,0.4-2.2c-0.5-0.6-2-1-2.6,0.1c-0.2-0.2-0.4-0.5-0.6-0.5
		c-0.8-0.1-1.2,0.2-1.8-0.6c-0.1-0.1-0.3,0-0.4,0.2c-0.2-1.1-0.9-2.5-2.1-2.2c-0.8,0.2-0.9,1.4-1.6,1.7c-0.2,0.1-0.6-0.4-0.9-0.2
		c-0.5,0.2-0.7,0.8-1.2,1.1c-0.3-0.7-1,0.2-1.1-0.4c-0.2-0.7,0.6-1.8-0.3-2s-2-0.4-2.7,0.4c-0.2-0.4-0.6-0.2-1-0.1
		c-0.8,0.3-1.1,1.7-1.9,1s-0.7-1.5-1.5-2c-0.3-0.2-0.7,0-0.9,0.2c-0.5,0.4-0.7,1-1.2,1.5c-0.3,0.3,0.5,0.9,0,1.1s-0.8,0.2-0.9,0.7
		c-0.1,0.5,0,1,0.3,1.4c0.1,0.1-0.2,0.3-0.5,0.4c-1.1,0.1-0.7,0.5-0.6-1c-0.1,0-0.3-0.9-0.5-1s-0.3,0-0.3-0.1
		c-0.8,0-1.7-0.1-2.1,0.6s0.2,1-0.6,0.7c-0.1,0-0.1,0-0.2,0.1c-0.6,0.2-1,0.7-1.1,1.3c-0.1,0.4,0.3,1.2-0.2,1.4s-0.5,0.7-0.6,1.3
		c-0.2,0-0.5,0.7-0.5,0.2s0.1-1.1-0.4-1.5c-0.4-0.4-1.3-0.9-1.7-0.2c-0.1-1-0.9-1.2-1.8-1.3s-1.5,1.6-0.9,2.4c0.1,0.1,0-0.2,0.2,0.4
		c0.1,0.4-0.2,0.1-0.4,0.5c-0.3-0.5-0.9-0.2-1.4-0.2c0.1,0.1,0,0.3-0.1,0.3c0,0,0,0-0.1,0c-0.6,0-1.3,0-1.3,0.6s0.4,1.1,0.4,1.8
		c0,0.1,0.3,0.3,0.3,0.4c0,0.4-0.5,0.1-0.7,0.2c-0.6,0.3,0,1.1-0.4,1.3s-0.6,0.9-0.9,0.8c-0.7-0.3-1.6,0.2-1.5,0.7
		c0,0.2,0.1,0.4,0.1,0.6c0,0.1,0,0.2,0,0.3c-0.1,0.6-0.7,0.5-1,0.7s-0.5,0.8-0.8,1.3c-0.3,0.7,0,1.4,0.6,1.8c-0.5,0.4-0.7,0.5-0.4,1
		c0.3,0.5,0.7,0.9,1.1,1.2c-0.4,0.4-1.1-0.3-1.3,0.2c-0.1,0.3-0.1,0.6-0.3,0.6c-0.4-0.1-0.6-0.3-1.2-0.2c-0.6,0.1-1.1,0.5-1.3,1
		c-0.3,0.7-0.2,1.4,0.9,2.1c0.3,0.2,1,0.4,1,0.4s-0.1,0.3-0.1,0.2c0.1,0.7,0.8,0.7,1.1,1.1c0.1,0.2,0,0.4-0.3,0.5
		c-1.6,0.5-1,1.4-1.3,1.7c-0.4,0.4-0.7,1-0.8,1.6c-0.1,0.4,0,0.8,0.2,1.1c0.4,0.3,0.9,0.3,1.3,0c0.1-0.1,0.6-0.5,0.7-0.3
		c0.5,0.8-0.5,1.1,0.6,2.5c0.4,0.5,0.1,1,0.7,1.3c-1.4,0.3-1.1,1.7-0.6,2.4s2.3,0.6,2.9-0.4c0.4,0.3,0.5,0.7,0.8,1.1
		c-0.1,0.1-0.3,0.2-0.4,0.4c-0.2,0.8,0.1,1.7,0.7,2.2c0.2,0.2,0,0.6,0.1,0.9c0.4,0.6,0.8,1,0.8,1.8c0,0.5,0.7,0.8,1.1,0.9
		c0.6,0.1,1.2,0.3,1.7,0.5c0.5,0.2,0,0.9,0.3,1c0.5,0.3,1.1,0.8,1.7,0.8s0.8-0.9,1.4-1.1c-0.1-0.1-0.2-0.2-0.2-0.2
		c0.5-0.7,1.3-0.5,1.9-0.5c0.8,0,0.3,0.6,0.5,1.3c0.2,0.5,0.7,0.9,1.3,1.1c1,0,1.5-1.3,2-1.4c1.6-0.4,2.9-1.5,3.6-3
		c0.2-0.3,0.1-0.6-0.1-0.8c1-0.4,0.9-1.5,0.7-2.3c0-0.3-0.7-0.4-0.6-0.6c0-1.1-0.7-2-0.5-3.1c2.2,0.7,4.5,1.6,5.6,3.7
		c0.5,1.1,0.4,2.3-0.1,3.4c-1,2.4-2.5,4.5-4.4,6.2c-0.5,0.3-0.9,0.8-1.2,1.3c-0.7,1.6-1.3,3.6-2.7,4.2c-1.8,0.7-3.6,1.7-5.6,2.3
		c-0.7,0.2-1.4,0.2-2.1,0.1c-0.1,0-0.1,0.1-0.2,0.2c3.3,2,7,3.4,10.7,4.2c5.2,1,10.5,0.9,15.6-0.4c2.3-0.6,4.4-1.5,6.6-2.5
		c0.9-0.4,2-0.6,2.6-1.7c-2.3,0.3-4.2-1.1-6.2-1.8c-0.4-0.1-0.6-0.7-0.9-1c-1.2-1.2-3-1.3-4.1-2.7c-0.4-0.5-1.3-0.4-1.9-0.7
		c-0.8-0.4-1.2-1.2-0.9-2.1c0.9-2.2,2.6-3.9,3.4-6.1c0.5-1.4-0.6-3.2-0.2-4.6c0.5-1.6,2.6-2,3.9-0.8c0.1,0.2,0.1,0.5,0,0.7
		c-0.6,0.7-1.5,1.5-0.9,2.2c0.2,0.3-0.3,0.9-0.4,0.9c-1,1.3-0.6,2.3-0.1,4c0,0.1,0.4,0.5,0.5,0.6c0.4,0.6,0.4,1.3,1.2,1.3
		c0.8-0.1,1.6-0.6,1.9-1.4c0.3-0.5,1.1-0.7,1-1.7c0-0.1,0.2-0.3,0.3-0.4c0.1-0.1,0.2,0,0.3,0.1c0,0,0,0.1,0,0.1
		c-0.1,0.4,0.2,0.8,0.6,0.9c0.4,0.2,0.8,0.3,1.2,0.3l0,0c0.1,0,0.1,0,0.2-0.1c0.2,0.3,0.5,0.2,0.8,0.5s1.1-0.2,1.5,0s0.1-0.6,0.4-1
		c0.2-0.4,0.2-0.9,0-1.4c-0.2-1,0.5-1,1.1-1.6c0.2-0.2,0.9,0.4,1.2,0.1c0.5-0.4,1-1,0.5-1.8c-0.1-0.2,0.6-0.4,0.9-0.7
		c0.5,0.3,1,0.4,1.5,0.1c1-0.3,1.2-1.5,1.5-2.4c0.3,0.4,1,0.5,1.4,0.2c0.3-0.2,0.4-0.5,0.4-0.9c0.1-1.1-0.4-0.6,0-1.3
		s0.4-2.7-0.7-3.1c0.4-0.7,0.7-0.6,1.2-1c0.1-0.1,0.3-0.2,0.4-0.3c0.6-0.6,0.1-1.3,0.7-2C77,46.2,77.3,45.2,76.9,44.7z M73.9,39.4
		c0.2,0.8,0.3,1.7,0.2,2.5c-0.2,0.6-0.6,1.1-1,1.5c0,0,0.8,0.2-0.1,1.2c0,0-0.7,0.7-0.7,1c0,0-1.9-0.7-2.9,1.7c0,0-1.5,0.1-1.7,0.1
		s4.2-1.5,5.5-5.9L73,41.3c-0.8,1.1-1.7,2.2-2.6,3.2c-1.7,1.6-0.8-1-0.1-1.2c0,0-0.1-2,1-1.7C71.2,41.6,72.8,37.5,73.9,39.4
		L73.9,39.4z M69.1,39.2c-0.5,1.4-1.1,2.9-1.8,4.2c-0.7-0.5-0.8-1.4-0.3-2.1c0,0,0,0,0,0c0,0-1.5-1.5-0.1-2.3c0.2-0.2,0.5-0.1,0.6,0
		c0,0.1,0.1,0.1,0.1,0.2c0,0,1.8-1.7,2.9-0.7c0-0.1,0,0,0,0l0,0c0,0.3,0,0.7,0,1c0,0,1,0.4-0.3,1.5l-1.2,1c0,0,1.2,0.4-0.3,1.6
		c0,0,0.6,0.4-1.3,1.9c0,0-0.3,0.8-0.5,1.3l0,0.2c0-0.1,0-0.2,0-0.2l0.2-0.9c0,0,2.5-4.9,2.4-6.6L69.1,39.2z M63.7,38.5
		c-0.1,0-0.1-0.1-0.1-0.1L63.7,38.5c0.3,0.2,0.6,0.3,0.9,0.4c1.2-0.8,0.6,2.1,0.6,2.1c1.2,0,0.9,1.8,0.8,2.3l0.2,0.1
		c0.9,0.7-0.9,2.4-0.9,2.4C65.9,43.2,65.3,40.6,63.7,38.5L63.7,38.5z M62,43.8l-0.6-0.1c-1.2-0.5-0.4-2.1-0.4-2.1l0.2-0.5
		c2.9,3.7,2.5,6.6,2.5,6.6c-1.7-0.7-0.6-1.6-0.6-1.6C60.9,45,62,43.8,62,43.8z M60,45.3c0,0-1.8-0.9-0.7-1.7l0.8-0.3
		c0,0,2.3,1.7,1.9,5.5c0,0-1.6-1.4-0.7-1.7C61.2,47.2,58.7,46.1,60,45.3L60,45.3z M60.3,48.1c-0.2,0.2-0.5,0.4-0.8,0.5
		c-0.3,0.1-0.3,0.5-1.1,0.7c-0.5,0.1,0.4-1.9,0.9-2.3C60,47.5,60.4,48,60.3,48.1L60.3,48.1z M55.2,38.4c0,0,1.9-3.2,9.2-2.1
		c0,0,1,1-1.4,0.9c0,0,0.4,1.1-2.2,0.4c0,0,0.2,1.4-3.1,0.1C57.7,37.6,59.1,38.1,55.2,38.4L55.2,38.4z M48.1,46.7
		c-0.7-1.9,2.1-1.7,2.1-1.7c-0.1-2,2.7-0.4,2.7-0.4c0.6-1.4,1.3,0.7,1.3,0.7c-4.5-1.6-6.4,3.4-6.4,3.4l0.6,0.1c3.4-4.9,7.4-2,7.4-2
		c-2.9,1.7-3,0.7-3,0.7c-0.4,1.5-2.1,1-2.1,1c-0.1,0.8-0.8,1.4-1.6,1.3c-0.2,0-0.4-0.1-0.6-0.2c-1.6,0.8-1.2-0.7-1.2-0.7
		C45.7,47.8,48.1,46.7,48.1,46.7L48.1,46.7z M42.5,35.4c0,0-0.4,0.1-0.7,1.5c0,0,0.5-6.2,5.3-5.3h0.1l0.3-0.2
		c-1-0.4-2.2-0.5-3.3-0.3c0,0,2-3.1,3-1.1c0,0.2-0.1,0.5-0.2,0.7c0,0,2.1-0.4,1.9,1.1c0,0,1.5,0.9-0.3,1c0,0,0.1,1.2-1.5-0.1
		c0,0,0.1,1.3-2.1,0.2C44.9,32.7,46.1,33.3,42.5,35.4L42.5,35.4z M38.8,42.2c0,0,1,0.9-1.3,1.8c0,0-0.1-5.5,4.2-4.7
		c0,0-4.8-2.2-5.1,4.4c0,0-1.8-2.6-0.3-2.9c0,0,0.3-3.7,1.9-1.9c0,0,1.5-2.5,2.8-0.4c0,0,2.6-0.1,2.3,1.5c0,0-0.3,1-2.9,0.7
		C40.4,40.6,42.2,41.9,38.8,42.2L38.8,42.2z M34.4,53.8c0.2-0.5,0.2-0.4,0.2-0.4s0.8-0.8,1.1,0.2c-1,0.8-1.7,1.8-2.2,2.9
		c0,0-1.3-0.7-0.4-1.4c0.3-0.3,0.8-0.4,1.2-0.2C34.3,54.5,34.3,54.1,34.4,53.8L34.4,53.8z M33.8,50.3c-1.6,0.3-1.3-0.7-1.3-0.7
		c-2.5-2.6,5.6,1.3,5.6,1.3C32.4,51.7,33.8,50.3,33.8,50.3L33.8,50.3z M30.2,54.4c-0.6-1.9-0.3-4,0.7-5.7l0.3,1
		c0.4,0.4,0.4,1.1,0,1.5c0,0-0.1,0.1-0.1,0.1c1.9,1.9-0.3,1.9-0.3,1.9C31.2,54.1,30.2,54.4,30.2,54.4L30.2,54.4z M27.4,41.1
		c0.1,0.4,0.2,0.8,0.3,1.2C27.7,42.3,27.5,41.9,27.4,41.1c-0.3-0.9-0.5-1.7-0.5-1.7c-1.5-1.8-0.1-2.8-0.1-2.8
		c-1.3-2.5,0.7-2.6,0.7-2.6c0.6-1.2,1-0.4,1-0.4C26.4,35.3,26.9,39.2,27.4,41.1L27.4,41.1z M29.3,33.7c0,0,1.2,0.1,0.1,2.3
		c0.6,0.5,0.8,1.4,0.3,2c-0.2,0.2-0.4,0.4-0.6,0.5c0,0,1.8,0-0.7,3.1C28.4,41.6,27,35.8,29.3,33.7L29.3,33.7z M33.3,38.9
		c-0.9,0-1.5,1.3-1.5,1.3c0.7,2.9-1.5,2.3-1.5,2.3c-1.2,2.9-1.9,0.4-1.9,0.4C31,38.4,33.3,38.9,33.3,38.9L33.3,38.9z M38,36.5
		c-1.1,0.1-2.2,0.2-3.4,0.1c-0.5,0-0.6,0.4-1,0.1c-0.8-0.6-1.6-1.2-2.2-2c-0.6-0.8,0.2-1.7,0.2-1.7c2-1.4,2.2,1,2.2,1
		c2.5-1.3,1.8,1.2,1.8,1.2C36.6,35.2,37.5,35.7,38,36.5L38,36.5z M35.4,40.5c0,0-1.5,1.5,1.1,4.4c0,0-3.6-1-2.4-3.4
		c0,0,0.4-0.8,0.7-0.7c0,0-1.2-1.9,1.3-1.8c-0.6,0.2-0.9,0.8-0.7,1.3C35.4,40.3,35.4,40.4,35.4,40.5L35.4,40.5z M31.6,43l0.5-0.2
		c0,0,1-1.7,0.4-2.4c0,0,0.5-0.9,1.2-0.9c0,0-0.7,0.6-0.1,1c0,0-2.1,1.2,0.4,3.8C34,44.3,32.1,43.8,31.6,43L31.6,43z M39.8,29.7
		c-0.7,1.1-1,2.4-0.9,3.6l0.6-0.4c0,0,1-5.1,3.5-5.5c0,0,1.1-0.3,1.3-0.1s-0.4,4.2-1.2,1.8c0,0-0.8,3.6-1.7,1.5c0,0-1,3.4-1.7,2
		c0,0-0.3,2.5-1,1.4c0,0-1.1-1.4-0.1-2.3C38.6,31.8,37.3,31.3,39.8,29.7L39.8,29.7z M47.2,36.1c0,0,1.9-2.7,2.7-0.8
		c0,0,1.3-1.8,1.7-0.2c0,0-4,0.6-4.3,3.4c0,0-1.1,2,0,3.3l-0.1,0.4c0,0-2.9-2.8-0.7-3C46.5,39.2,44.4,36.1,47.2,36.1L47.2,36.1z
		 M48.3,39.7c0,0-0.4-0.9,1-1c0.3-0.7,1.2-1,1.9-0.7c0.1,0,0.1,0.1,0.2,0.1c0,0,0.4-0.4,0.6-0.3c0.1,0.7,0,1.4-0.4,2
		c0,0-0.1,2.2-3.6,1.5c0.7-1.3,2.1-2.1,3.5-2v-0.9C51.6,38.5,49.1,38.4,48.3,39.7L48.3,39.7z M50.5,37c0,0-1.5-0.5-1.5,1
		c0,0-0.1,0.6-1,0.5l0.6-0.8c0.8-0.8,1.8-1.3,2.9-1.6l0.5,0.9C52,36.9,51,37.5,50.5,37L50.5,37z M54.8,40c0,0-0.8,2.7,0.1,4.4
		c0,0-2.9-1.4-1.1-2.2C53.7,42.2,53.2,38.1,54.8,40L54.8,40z M57.4,29c0.1-0.7,0.9-0.4,0.9-0.4c3.1,1.6,1.9,3,1.9,3
		c1,0.9-1.1,2-1.1,2c0.9-1.7-0.4-4.2-0.4-4.2l-0.3-0.1c0.8,3.6-0.3,4.6-0.3,4.6c-1.2-0.7-0.3-1.4-0.3-1.4c-1.5-0.9,0-2.5,0-2.5
		C57.1,30.1,57.4,29.1,57.4,29L57.4,29z M59.2,35.1c0,0,0.2,0,0.2-0.1c1.8-2.7,2.4-0.1,2.4-0.1c0.6-0.3,1.3-0.2,1.6,0.4
		c0.1,0.1,0.1,0.2,0.1,0.3c-4.4-1.2-6.9,0.8-6.9,0.8C58,33.2,59.3,35.1,59.2,35.1L59.2,35.1z M63.7,42.3c0,0-3.6-2-1-2.9
		c0,0-0.7-2.1,0.2-1.2c0,0,2.1,4.9,1.6,6.2C64.5,44.4,61.7,42.4,63.7,42.3L63.7,42.3z M72,36c0,0,1.5,2,0.7,2c0,0-2,0.7-1.5-0.4
		c-1,0-2-0.2-3-0.6c0,0-0.1,2-3.6,0.3c0,0,4.8-1.7,7.2-0.1v-0.9c0,0-1.7-1.1-5.3-0.2c0,0,1.2-2.6,1.8-1.2c0,0,2.4-1.4,2,0.1
		C70.4,35.1,72.3,35.1,72,36L72,36z M70.1,31c0,0,1.5-0.4,0.5,1.4c-0.5,0.2-0.9,0.7-1,1.2l-2.3,0.5c0,0,1.7-2.4,2.7-2.5l-0.3-0.2
		c0,0-1.7,0.4-1.8,0.9c0,0,0-1.3,0.7-1.2C69.6,31.4,69.9,31.3,70.1,31L70.1,31z M66.8,27.5c0,0,2.3-1.4,1.5,1c0,0,1.3,2-1.2,2.2
		c0,0,1.5,1.7-1.3,2.3c0,0,1,1.2-1.2,2.2c0,0-0.4-1.3-0.2-1.8s1.6-3.8,3.4-5.3l-0.6-0.4c-1.8,1.7-3,3.8-3.6,6.2L63,33.4
		c0,0-0.1-2.2,1.2-1.5c0,0-0.7-4.3,1-2.5C65.2,29.5,65.4,26.5,66.8,27.5L66.8,27.5z M63.8,25.5c0,0,0.2-1.1,0.8-1s0.7,0.7,0.4,1.8
		L64.9,27l0.4,0.1L64.4,28c0,0,0.2-1.2-0.2-1.4l0.5-0.9l-0.2-0.2l-0.7,0.7L63.8,25.5z M63.2,26.2L63.1,27c1.8,0-0.2,2.2-0.2,2.2
		c1.4,1-1.1,2.9-1.1,2.9c0.7-1.7,1-3.6,0.9-5.4L62,26.6c-0.1,1.2-0.2,2.4-0.5,3.6c-0.2-0.2-1.7-1.3-1.7-1.3
		c-0.5-2.6,1.6-1.8,1.6-1.8c-0.4-0.9,0-1.2,0-1.2C62.5,23.9,63.2,26.2,63.2,26.2L63.2,26.2z M60.8,22.4l-0.4-0.7
		c-1.3,0.8-2.4,1.9-3.3,3.1c0,0-0.6-2.4-0.2-2.5c0,0,1-2,2.3-0.4c0.3-0.3,0.6-0.5,1-0.7c0.5-0.2,0.9-0.1,1.2,0.4
		c0.3,0.5,0.1,1.2-0.5,1.4c-0.1,0.1-0.2,0.1-0.3,0.1c0,0,1.4,1-1.1,1.7c0,0,2.2,1.3-2.2,3.3c-0.3-0.3-0.5-0.7-0.7-1.2
		C56.7,27,59.7,22.9,60.8,22.4L60.8,22.4z M55.9,32.3c1.9-0.4-1.1,4.5-1.1,4.5c1.4-6.1-0.9-9.8-0.9-9.8h-0.3
		c1.1,2.8,0.7,7.2,0.7,7.2c-3.4-2.7-1.3-3.1-1.3-3.1c-0.3-0.3-0.5-0.6-0.7-1c-1.5-2.3,0.6-2,0.6-2c-0.4-1.2,0.4-1.1,0.4-1.1
		c-0.4-1,0-1.5,0-1.5c0.7-1.3,2,1.9,2,1.9c1.5-1.2,0.5,2.3,0.5,2.3C58.3,28.1,56,32.4,55.9,32.3L55.9,32.3z M53.6,24.3
		c0.1-0.2,0.2-0.4-0.2-0.7c0,0,1.1-1.2,0.4-1.8H54c0.1-0.6,0-1.2-0.4-1.8c0,0,0.2-0.7,0.7-0.7c0,0,1-1.2,1.6,1.2c0,0,1,1,0.2,1.5
		c0.3,1,0.1,2.1-0.5,3c0,0,1,0.4,0.2,1.4c-0.3-0.4-0.6-0.7-0.9-1c0,0,1-3.4,0.1-5.3l-0.8,0.1c0.4,1.5,0.3,3-0.3,4.4
		c-0.1-0.2-0.3-0.3-0.5-0.2C53.6,24.3,53.6,24.3,53.6,24.3c-0.1,0.2-0.2,0.3-0.4,0.4C53.3,24.6,53.4,24.4,53.6,24.3L53.6,24.3z
		 M50.8,21.7c0,0,1.2-1.2,2-0.8c0,0,0.7-0.4,0.1,1c0,0,0.4,1-1.5,1.9c0,0,2.6,0.7-1,2.6c0,0,1,1.1-1.2,3.4c-0.1-3.2,1.1-6.2,3.3-8.5
		L51.8,21c0,0-3.2,2-3.4,7.2c-0.6-0.9-1-1.9-1.2-3c0,0,0.8-1.2,0.2-1.5c0,0,2-1.1,1.2-2.2C48.7,21.5,50.4,20.4,50.8,21.7L50.8,21.7z
		 M44.8,20.5c0.7-1.8,1.5-0.9,1.5-0.9c0.4-0.4,0.9-0.6,1.4-0.7c0.6-0.4,1.2,0.2,1.2,0.2c0.2,1.4-1.6,2.2-1.6,2.2
		c1.2,1.6-1.5,2.2-1.5,2.2c1.5,0.1-0.5,2.1,0,2.5s-0.4,1.8-0.4,1.8l-0.4-1c-0.5-2.7,0.8-5.5,3.1-7l-0.4-0.2
		c-2.1,0.3-3.6,3.1-3.6,3.1c0.3-1-0.4-1.2-0.4-1.2C43.9,21,44.4,20.6,44.8,20.5L44.8,20.5z M41.3,20.9c0,0-0.7-1.2,0.2-1.5
		c0,0,0.4-2.2,1.2-0.2l0.1,0.7c0.3,0.1,0.7,0.2,1,0.4c0,0-0.7,0.1-0.7,1.1c0,0-0.2-0.3-0.5,0.1c0,0-0.7-2-0.4-2.2h-0.4
		c-0.2,0.8-0.3,1.6-0.3,2.3c-0.4-0.2-1,0-1.2,0.4C40.3,22,40,20.8,41.3,20.9L41.3,20.9z M43,22.9c0,0,0.8-1-0.4-0.5
		s-4.2,3.1-4.2,3.1c-0.3-2.1,1.5-1.8,1.5-1.8c0.8-1.9,2-1.4,2-1.4c3.3-1.3,0,2,0,2c1.9,1.1-2,2.1-2,2.1c2.5,0.7-2.2,3.4-2.2,3.4
		C37.9,25.8,43,22.9,43,22.9L43,22.9z M34.2,25c-0.2-2.9,1.4-2.2,1.4-2.2c-0.2-0.5,0.3-1,0.3-1c0.2-0.9,1.5-0.4,1.5-0.4
		c0.6,0.7,0.5,1.8-0.2,2.4c0,0-0.1,0.1-0.2,0.1c0,0,0.1,0.1,0.1,0.1c0.6,0.8,0.5,1.9-0.2,2.6c0,0,0,0-0.1,0c0.5,0.9,0.3,2-0.4,2.7
		c0.3,0.8,0.4,1.7,0.1,2.5c-3.3-4,0.7-10.2,0.7-10.2l-0.5,0.1c-2,1.5-2.4,6.4-2.4,6.4C32.7,25.9,34.2,25.1,34.2,25L34.2,25z
		 M28.5,24.2c0.7,0,1.4,0.5,1.5,1.2c0,0,0.9-1,1.2-0.2c0,0,0.9,0.9-0.1,1.4c0,0,1-0.1,0.6,1c0.1-0.2,0.5-0.6,2,3.3
		c0,0-1.7-0.3-4.9-6.3c0-0.1-0.1,0.4-0.1,0.4c0.6,1.7,1.6,3.3,2.7,4.8l0.2,0.2l-0.2-0.2c-0.5-0.5-1-1-1.6-1.3c-0.3,0-1.3,0-0.3-0.7
		c0,0-2.1-0.1-0.7-1.2C28.7,26.4,27.9,24.6,28.5,24.2L28.5,24.2z M26,27.5c0.4-0.7,1.3,0.1,1.3,0.1c0.6-0.4,0.8,1.2,0.8,1.2
		c-0.8,0-1.6-0.3-2.3-0.9l-0.2,0.3l1.2,0.9c0,0.1-0.1,0-0.1,0c-1.8,0.5-1-0.4-1-0.4C24.7,27.3,26,27.5,26,27.5L26,27.5z M24.4,31.8
		c-0.2-1.5,1.3-1,1.3-1c0.2-2,1.9-0.6,1.9-0.6c0-1.3,0.8-1,0.8-1c1,0.1,0.9,1.8,0.9,1.8c-1.7-0.1-4.9,1-4.9,1l-0.1,0.8
		c2.4-0.8,4.9-1.2,7.4-1.2c-0.4,0.3-0.8,0.6-1.2,1c-1,0.9-2.4-0.1-2.4-0.1c-1.4,2.1-2.5,0.8-2.5,0.8c-0.4,0.4-1,0.6-1.5,0.4
		C22.4,32.6,24.5,31.8,24.4,31.8L24.4,31.8z M22.5,33c0,0,0.2,0,0.2,0c0.4,0,0.6,0.6,0.5,0.9s-0.8,0.1-0.9-0.2
		C22.3,33.4,22.4,33.2,22.5,33L22.5,33z M23.3,35.6c1.4-2,1.3,1.3,1.3,1.3c1.5-1.2,0.6,2.3,0.6,2.3c1-1.4,1.3,2.2,1.3,2.2
		c-2.3-1.9-5-6.7-5-6.7C22.9,33.2,23.3,35.6,23.3,35.6L23.3,35.6z M21.4,37.1c0,0-1.7,0.1-0.4-1.5c0.7,1.5,1.7,2.9,2.8,4.2
		c0.4,0.2,0.7,0.5,1,1c-0.3-0.3-0.7-0.6-1-1c-0.5-0.2-1-0.1-1.4,0.2C22.4,40,19.8,37.4,21.4,37.1L21.4,37.1z M20,41.1
		c0.6-1.6,2-0.4,2-0.4c1.8-0.7,2.8,1.5,2.8,1.5c1.2,0,1,1.8,1,1.8c-2.3-0.1-7.8-2.5-7.8-2.5C18,40.2,20,41.1,20,41.1L20,41.1z
		 M19.8,43.3c0,0-2-0.2-1.8-1.3c0,0,1,1.4,6.7,2.7c0,0-3.6,1.8-3.2-0.1C21.5,44.6,18.7,44.6,19.8,43.3L19.8,43.3z M19.2,48.9
		c0,0-0.4,0.8-1,0.4c0,0-0.6-0.4,0.7-1.8c0,0-0.4-1.6,1.8-1.8c0,0,0.6-0.6,0.8-0.1c0,0-2,0.5-3.3,3.5c0,0,3.1-2.9,5-3.1l0.5-0.2
		l0.9,0.1c0.1,0,0.3-0.1,0.4-0.1c0.2,0-2.7,1-2.8,2c0,0.4-0.4,0.8-0.8,0.8c0,0,0,0-0.1,0C20.8,49.2,19.9,49.3,19.2,48.9L19.2,48.9z
		 M20.8,51.3c0,0-0.7-1.5,0.3-1.8c0,0,0.7-0.5,0.8-0.3c0.1,0.1,0.1,0.2,0,0.3L20.9,51c0.2,0.1,0.5,0.2,0.7,0.1c0,0,2.9-4.4,5.2-5
		c0,0,0.8-0.5,0.7,0.1c0,0,0.2,1-0.7,0.7c0,0,0.6,1.9-1.7,2c0,0,0.8,2-1.8,1.9c0,0-0.6,1.2-1.4,0.5C21.8,51.3,21.5,52.1,20.8,51.3
		L20.8,51.3z M23.4,54.9c0,0-0.6-0.7-0.7-0.4c0,0,0.1,1.3-1.4,1c0,0-1.5-1-0.3-1.7c0,0,1.1-0.6,0.7-0.7s-0.4-0.7-0.4-0.7l0.4-0.1
		c0,0.2,0.1,0.5,0.3,0.6c0,0,0.3-0.1-0.4,0.7c0,0-0.7,0.9-0.6,1.2l0.2,0.1c0.5-0.6,1-1.1,1.6-1.5c0,0-0.4,0.2,0.9,0.3
		C23.7,53.9,23.7,54.7,23.4,54.9L23.4,54.9z M23.5,53.3c-0.3-0.3-0.4-0.6-0.3-1l-0.3-0.1c-0.2-0.7,1.2-0.7,1.2-0.7
		c0.2-0.1,0.4-0.1,0.6-0.2c-0.4,0.4-0.7,0.9-0.7,1.5h0.3c0.3-0.9,4.8-5,4.8-5c0.3,0.1-0.8,1.8-0.8,1.8c0,0.8-0.5,1.5-1.2,1.9
		c0.2,0.3,0.2,0.6,0.2,0.9c-0.1,0.6-1.4,0.1-1.8,0c0.3,0.2-0.1,0.8-0.1,0.8C24.8,53.4,24.1,53.4,23.5,53.3L23.5,53.3z M24.8,58.2
		c-0.5-0.1-0.4-0.5-0.4-0.9c0,0,0.6-0.8,0.8-0.8c0,0-1-0.9-0.8-1.2c0,0-0.2-0.9,0.7-1c0,0,1,0,0.4,1.8l-0.2,0.1c0.9-0.1,0.4,2,0.4,2
		c0.2-0.3,0.6,0.2,0.6,0.2c-0.2,0.9-0.6,0.9-0.6,0.9C25.3,59.1,25,58.7,24.8,58.2L24.8,58.2z M27.2,61.8c-1,0.2-1-0.6-1-0.6
		c-1.2-0.9,0.1-1.3,0.1-1.3l0.6,0.3c0-0.9,0.1-1.7,0.4-2.6l0.3-0.1C27.7,59,27.6,60.4,27.2,61.8L27.2,61.8z M26.6,56.7
		c-0.8-1.1-0.6-2.6,0.4-3.5c1,1.6,0.4,1.9,0.4,1.9C28.3,56,26.7,56.7,26.6,56.7L26.6,56.7z M28.4,52.3l0.9-1.5
		c-0.3,1.2-0.3,2.5,0,3.7c0,0-1,1-0.7-0.4C28.6,54.1,27,54.2,28.4,52.3L28.4,52.3z M30.8,60.4c1.1,2.4-0.3,2.4-0.3,2.4
		c0,0.4-0.2,0.8-0.6,1c-1,0-1.3-1.2-1.3-1.2c-0.4,0-0.6-0.3-0.7-0.6c0-0.1,0-0.2,0.1-0.3c0.4-0.4,0.3-1.6,0.3-1.6
		c0.1-1,0.2-2.1,0.1-3.1c1.5-1.2,0,4.9,0,4.9c0.2,0.5,0.5,0.9,0.8,1.4l0.4,0.3c-0.3-2.9,0.1-5.9,1.1-8.6c1.1,1,0.8,1.6,0.8,1.6
		c-0.1,0.8,0,1.6,0.3,2.3C32.6,59.7,30.8,60.4,30.8,60.4L30.8,60.4z M34.8,64.7c-0.4,0.1-0.3,0-0.3,0c-0.5-0.3-0.3-1.1-0.2-1.4
		l-0.1-0.1l0,0c-0.9-0.7,0.1-1.4,0.1-1.4c0.4,0.4,0,1.2-0.1,1.4c0,0,0.1,0,0.1,0.1v0.1c0.3,0.4,0.4,0.9,0.3,1.3
		C34.7,64.6,34.8,64.6,34.8,64.7L34.8,64.7L34.8,64.7z M34.6,60.1c0,0-0.4,1.8-1.5,1.7c0,0-0.1,1.1-0.8,1c0,0,0-3.6,4.4-9.3
		c0,0,0.4-0.4,0.4,0.2c0,0-2.2,3.8-1,4.6C36.1,58.4,36.1,60.8,34.6,60.1L34.6,60.1z M36.6,63.1c0,0,0.7,0.5-0.7,1.2
		c0,0-1.2-2.6-0.2-3.5c0,0,1.9,0.1,1-3.4c0.1-1.2,0.5-2.3,1.2-3.2l0.2,0.6c0,0,0.7,1.4-0.4,1.8c0,0,0.5,2.9-1,4
		C36.7,60.6,37.5,62.7,36.6,63.1L36.6,63.1z M39.5,59.9c0,0,0.4,2.2-1.3,2.1c0,0,0.6,0.6-0.7,1c0.6-0.7,0.7-1.7,0.4-2.6
		c1-1,1.3-2.4,0.9-3.7c0,0,0.7-0.3,0.7-1.8c0,0,0.9,2.3-0.1,2.3C39.3,57.2,40.7,59.2,39.5,59.9L39.5,59.9z M42.1,48.8l-0.3,0.1
		c-0.4,0.9-0.1,1.9,0.6,2.6c0,0-2.2-1.7-1.4-2.6c0,0-3.3-0.5-2.5-2.1c0-0.1,0.1-0.1,0.1-0.2l1.2-0.6c0,0.1,0.1,0.1,0.1,0.2
		c0.1,0,0.1,0,0.2,0c0,0-0.1,0-0.2,0c0.3,0.5,0.8,0.8,1.4,0.7c0,0,1.5-0.1,1.3,2c1.1,1.1,1.7,2.5,1.9,4
		C44.5,52.8,42.2,50.6,42.1,48.8L42.1,48.8z M44.3,45.5c-1.2,1.5-2.2-0.7-2.4-1.2c0.3,1-3,0.2-3,0.2c1.8-1,0.9-1.5,0.9-1.5
		c3.5-1.6,6,3.5,5,1.2c-0.4-1.2-1.5-2.1-2.8-2.2h-0.2c0.1,0,0.1,0,0.2,0c1.3,0,1.3-1,1.3-1c1.2-0.3,0.4,0.9,0.4,0.9
		c4.4,0.4,2.6,2.3,2.6,2.3C47.6,46.3,44.3,45.4,44.3,45.5L44.3,45.5z M45.3,68.2c0.3-1.1,0.5-1.1,1.4-1.2c1.2,0,1.4,1.4,1.4,1.4
		C48.2,68.9,45.1,68.8,45.3,68.2L45.3,68.2z M44.3,70c0-0.5,0.3-0.9,0.8-1.1c0.5,0.2,1.1,0.3,1.6,0.3c0.5,0,1,0,1.5-0.2
		c0.4,0.2,0.7,0.7,0.7,1.1c0,0.8-0.4,1.8-2.2,1.8S44.2,71.2,44.3,70L44.3,70z M40,73h-0.4c0.4-0.6,0.7-0.6,1-0.4
		c0,0,0.6-1.4,1.6-0.2l0,0c0.2-0.2,1.3-1.1,1.7,0.4c0,0,1-1,1.8,1.2c-1-0.8-2.2-1.4-3.5-1.6l0,0l0,0C41.4,72.3,40.7,72.6,40,73
		L40,73z M45.1,74.6c0,0-1.3,0.9-1.6-0.3c0,0-1.4,0.6-1.8-0.6c0,0-0.4,1-1.3-0.3c0,0,1.6-1.4,5.6,1.2C46.1,74.7,45.4,75.3,45.1,74.6
		L45.1,74.6z M46.7,76.4c-0.5-1.3-0.7-2.8-0.5-4.2h0.6c0,0-1.4,7.3,4.8,4.7l0.3,0.4C51.9,77.3,48.2,79.2,46.7,76.4L46.7,76.4z
		 M54.3,73.4c1.1,0.7-1.4,0.4-1.4,0.4c-0.6,1-1.6,0.2-1.6,0.2c-0.1,1.2-1.7,0.1-1.7,0.1c0.1,1.3-2.3,0.7-2.3,0.7
		C49.1,73,51.9,72.5,54.3,73.4L54.3,73.4z M51.2,72.2c0.8-1.1,1.5,0.3,1.5,0.3c0.7-0.7,0.9,0.3,0.9,0.3c-3.4-1.6-6.2,1.2-6.2,1.2
		c0.4-2,1.4-1.3,1.4-1.3C49.2,70.8,51.2,72.2,51.2,72.2L51.2,72.2z M55,48.9c0.9,1.5-1.9,1.4-1.9,1.4c-0.6,1.7-1.5,0.7-1.5,0.7
		c-0.1,0.7-0.4,1.4-0.8,2c-0.1-1.8-1.5-1.3-1.5-1.3c-0.5-0.9,2.6-2.4,2.6-2.4c1.6-0.3,3.1-1,4.3-2C56.1,48.1,55,48.9,55,48.9
		L55,48.9z M56.2,46.1c-1-2.1-1.1-4.5-0.1-6.6l1.6-0.7c2.7,0.4-0.6,3.1-0.6,3.1c1.8-0.4-0.7,4.5-0.7,4.5
		C56.4,46.2,56.3,46.2,56.2,46.1L56.2,46.1z M57.5,50.4c1.5,0.4,3.4-1.3,3.4-1.3c1.5,1-0.1,1.1-0.1,1.1C61.2,53.1,56,50,57.5,50.4
		L57.5,50.4z M58.1,64c-1.1,0.1-0.8-1.4-0.8-1.4C56.6,63,57,61.1,57,61.1c-0.9-1,0.8-2.4,0.8-2.4l-0.1-0.3c-0.2-0.6,0.5-0.7,0.5-0.7
		C57.8,59.8,57.8,61.9,58.1,64L58.1,64z M59.7,60.6c1,2-0.5,2.3-0.5,2.3c0.4,0.6-0.4,1.2-0.4,1.2c-0.2-3.4,0-8.3,0-8.3
		c1.8,1.8,0.5,2.3,0.5,2.3C61.6,59.8,59.7,60.6,59.7,60.6L59.7,60.6z M64.3,62.3c0,0-2.3,0.8-1.7-1.1c-0.6,0.4-1.4,0.3-1.9-0.3
		c0,0,1.1-1-0.4-2.7c0,0,0.8-0.1-0.3-1.9c0,0,4.5,4.5,5.3,6.2C65.5,62.5,65.2,63.3,64.3,62.3L64.3,62.3z M65.6,60.9
		c0.2,0.4-0.1,0.6-0.1,0.6c-1.5-2.8-3.7-5.3-6.3-7.1c3.9-0.1,3.2,1.7,3.2,1.7c1.2-0.2,2.3,0.6,2.5,1.9c0,0.3,0,0.6,0,0.8
		c0.7,0.1,1.1,0.8,1,1.5C65.9,60.5,65.8,60.7,65.6,60.9L65.6,60.9z M68.8,57.2c0,0,0.1,1.9-0.9,1.5c-0.3-0.1-0.6-0.3-0.7-0.7
		c0,0,0.1,1.5-0.7,1.1c-0.8-0.9-1-2.2-0.6-3.3c0,0-2.2,0.6-0.4-3.2c0,0-1.4-0.4-0.4-2c0,0,0.4,0.3,0.7-0.3s0.7,1.8,0.7,1.8
		s0.4,4.3,1.3,5.8c0.6,1,0.3,0.1,0.3,0.1s-0.7-4.6-0.7-6.7c0,0-0.3-1.2-0.4-1.8c-0.1-0.4,1.3,1,1.4,1.5S68,51.7,68,51.7
		s2.2,2.7,0.7,2.9C68.7,54.5,70.2,56.6,68.8,57.2L68.8,57.2z M71.6,56.3c0,0-1,0.4-0.8-0.7c0,0-1,0.8-0.8-0.9
		c-0.1,0-0.3-0.8-0.9-3.7c1.1,1.4,1.8,2.9,2.3,4.5l0.4-0.4c0,0,0.5-2-2.4-4.8c0,0,0.7-0.7,1.2,0c0,0,0.4,0.1,0.4,1
		c0.8,0.1,1.4,0.7,1.3,1.5c0,0.1,0,0.2-0.1,0.3C72.4,53.1,72.7,56.1,71.6,56.3L71.6,56.3z M74,54.3c0,0-1.2,0.5-0.7-2.3
		c0,0-1,0.1-1.2-1.5c0,0,0.1,0.5-0.7-0.7c0,0,2.1,0.4,3,3.5C74.4,53.7,74.3,54.1,74,54.3L74,54.3z M74.6,51l-0.2,0.6
		c0,0,0.4-0.7,0.3,0.2l-0.1,0.1l-1.8-2C72.8,49.8,74.4,49.7,74.6,51L74.6,51z M76.3,46L76,46.3c-0.2,0.4-0.5,0.8-1,1
		c0.7,1.1-2.2,1.6-2.2,1.6c0.1,1.6-3.7-1-3.7-1c2.3,0.4,4.6-0.2,6.4-1.7l-0.7-0.4c0,0-1,1-4,1.1c0,0,0.2-1.2,1.8-0.4
		c0,0,1.4-3.1,2.3-1.6c0,0,1.3-0.5,1.5,0.4L76.3,46z"/>
	<path class="st4" d="M4.4,51.8v0.5H3.9l-0.1-2.9c-0.1-1.9,1.4-3.5,3.3-3.5c1.8-0.1,3.4,1.4,3.5,3.2l0.1,2.9h-0.5l-0.1-0.5L4.4,51.8
		z M10.1,49.9c0-0.1,0-0.3,0-0.4c-0.1-1.9-1.6-2-3-1.9s-2.9,0.3-2.8,2.2c0,0.1,0,0.3,0.1,0.4L10.1,49.9z"/>
	<path class="st4" d="M10.1,43.6c0.1-0.2,0.1-0.4,0.1-0.6c0.1-1.1-0.5-2.2-1.5-2.6L9,39.8l2.2,0.8c-0.2,0.4-0.3,0.9-0.3,1.3
		l-0.4,3.7H9.9v-0.5l-5.7-0.6L4.1,45L3.6,45l0.4-3.7c0.1-0.5,0.1-0.9,0-1.4l2.2-0.2v0.4c-1,0.2-1.8,1.1-1.9,2.1c0,0.2,0,0.5,0,0.7
		l2.4,0.3l0.1-0.5c0.1-0.7-0.5-0.8-1-1l0.1-0.4l2.7,0.3V42c-0.5,0-1.1,0.1-1.2,0.7l-0.1,0.6L10.1,43.6z"/>
	<path class="st4" d="M5.2,37.6L5,38.1l-0.5-0.1l0.7-2.4c0.4-1.5,1-2.7,2.6-2.3c1.4,0.4,1.4,1.7,1.1,3l-0.2,0.7l2.5,0.7l0.2-0.5
		l0.5,0.1l-0.7,2.5l-0.5-0.1l0.1-0.5L5.2,37.6z M8.2,36.8c0.1-0.2,0.1-0.3,0.2-0.5c0.3-1-0.3-1.3-1-1.5S6,34.6,5.7,35.6
		c0,0.2-0.1,0.3-0.1,0.5L8.2,36.8z"/>
	<path class="st4" d="M12.2,35.7l-0.5-0.2c0.2-0.6-0.3-0.9-0.7-1.3l-3.6-3.2H6.7l0.7-1.6l6.6,0.6l0.2-0.4l0.5,0.2l-1,2.4l-0.5-0.2
		l0.1-0.5l-1.6-0.2l-0.9,2l0.7,0.5c0.1,0.1,0.1,0.1,0.2,0.1c0.4,0.1,0.6-0.2,0.8-0.5l0.5,0.2L12.2,35.7z M10.4,33.1l0.7-1.7
		l-3.1-0.4l0,0L10.4,33.1z"/>
	<path class="st4" d="M9.5,26.3l-0.3,0.4l-0.4-0.3l1.6-2.6c0.7-1.2,1.7-1.7,2.8-0.9c0.7,0.4,1,1.2,0.8,1.9l3,0.4l0.3-0.4l0.4,0.3
		l-1,1.6l-3.3-0.6c-0.1,0.2-0.2,0.4-0.3,0.5l2.2,1.4l0.3-0.4l0.4,0.3l-1.4,2.2l-0.4-0.3l0.2-0.5L9.5,26.3z M12.6,26.4
		c0.1-0.1,0.2-0.3,0.3-0.4c0.5-0.8,0.1-1.4-0.5-1.7s-1.3-0.6-1.8,0.3c-0.1,0.1-0.2,0.3-0.2,0.4L12.6,26.4z"/>
	<path class="st4" d="M14.9,18c0.3-0.3,0.6-0.7,0.8-1.1l1.9,1.2l-0.2,0.4C16.7,18,15.7,18,15,18.6l4.4,3.8l0.4-0.4l0.4,0.3l-1.7,2
		L18.1,24l0.3-0.4L14,19.8c-0.6,0.8-0.2,1.7,0.2,2.4l-0.3,0.2l-1.5-1.7c0.3-0.3,0.6-0.6,0.9-1L14.9,18z"/>
	<path class="st4" d="M20.8,21.4L20.5,21c0.6-0.5,0.4-0.8,0.1-1.2l-3-3.9l-0.5,0.3l-0.3-0.4l1.8-1.5l3,2l0,0L20.3,13l1.7-1.4
		l0.3,0.4L22,12.3l3.7,4.4l0.5-0.3l0.3,0.4l-2,1.7l-0.3-0.4l0.4-0.4l-3.4-4l0,0l1.8,4.6l-0.3,0.3L18.3,16l0,0l1.9,2.5
		c0.3,0.4,0.5,0.7,0.8,1.1c0.2,0.4,0.7,0.5,1,0.3c0.1,0,0.1-0.1,0.2-0.1l0.3,0.4L20.8,21.4z"/>
	<path class="st4" d="M28.3,15.1c0.2-0.1,0.4-0.1,0.6-0.2c1-0.5,1.5-1.6,1.3-2.7l0.5-0.1l0.6,2.3c-0.4,0.1-0.9,0.3-1.2,0.5l-3.3,1.8
		l-0.2-0.4l0.4-0.3l-2.8-5l-0.5,0.2l-0.2-0.4l3.3-1.8c0.4-0.2,0.8-0.5,1.1-0.8l1.5,1.7L28.9,10c-0.8-0.7-1.9-0.8-2.9-0.3
		c-0.2,0.1-0.4,0.2-0.6,0.4l1.2,2.2l0.5-0.3c0.6-0.3,0.4-0.9,0.2-1.4l0.4-0.2l1.3,2.4L28.7,13c-0.3-0.4-0.7-0.9-1.3-0.6l-0.5,0.3
		L28.3,15.1z"/>
	<path class="st4" d="M35.8,10.1L35.8,10.1L34.7,7c-0.2-0.6-0.4-0.8-1.1-0.6l-0.2-0.5l1.9-0.7l0.2,0.5C35,5.9,35,6.4,35.2,6.8L37,12
		l-0.9,0.3l-4.8-3.9l0,0l1.3,3.7c0.1,0.4,0.6,0.7,1,0.6c0,0,0,0,0.1,0l0.2,0.5l-1.9,0.7l-0.2-0.5c0.4-0.2,0.6-0.7,0.4-1L30.6,8
		c-0.1-0.4-0.6-0.3-0.8-0.3l-0.2-0.5l1.9-0.7L35.8,10.1z"/>
	<path class="st4" d="M39.9,4.4c0.5-0.1,1-0.2,1.3-0.3L42,6.2l-0.4,0.1c-0.4-0.8-1-1.5-2-1.4l1.1,5.7h0.5l0.1,0.5l-2.5,0.5l-0.1-0.5
		l0.5-0.2l-1.1-5.7c-1,0.2-1.2,1.2-1.3,2h-0.4L36.3,5c0.4,0,0.9-0.1,1.3-0.2L39.9,4.4z"/>
	<path class="st4" d="M45.3,7.1c0.3-1.7,1.9-2.9,3.7-2.7c1.7,0.3,2.9,1.9,2.7,3.7c-0.3,1.6-1.7,2.8-3.3,2.7
		C46.4,10.6,45.1,9,45.3,7.1z M50,7.3c0.1-1.8-0.2-3.1-1.4-3.1S47,5.4,47,7.2s0.2,3.1,1.4,3.1S49.9,9.1,50,7.3L50,7.3z"/>
	<path class="st4" d="M51.6,10.9l0.1-0.5h0.5l1.1-5.6l-0.5-0.2l0.1-0.5l3.5,0.7C56.9,4.9,57.3,5,57.8,5v2.3h-0.4
		c-0.2-1.2-0.6-1.9-1.9-2.1l-0.6-0.1l-0.5,2.5l0.4,0.1c0.7,0.1,0.9-0.2,1.2-0.8l0.4,0.1l-0.5,2.6l-0.4-0.1c0-0.7-0.1-1.1-0.8-1.3
		l-0.4-0.1l-0.5,2.6l0.5,0.2l-0.1,0.5L51.6,10.9z"/>
	<path class="st4" d="M61.2,13c0.2,0.1,0.4,0.2,0.6,0.3c1,0.5,2.2,0.2,3-0.6l0.4,0.3l-1.5,1.9c-0.4-0.3-0.8-0.5-1.2-0.7l-3.4-1.5
		l0.2-0.4l0.5,0.1l2.3-5.2l-0.5-0.3l0.2-0.4l3.4,1.5c0.4,0.2,0.8,0.3,1.3,0.4l-0.5,2.2l-0.4-0.1c0.1-1.1-0.5-2-1.5-2.5
		c-0.2-0.1-0.4-0.2-0.7-0.2l-1,2.3l0.5,0.2c0.6,0.3,1-0.2,1.2-0.6l0.4,0.2l-1.1,2.5L63.2,12c0.1-0.5,0.3-1.1-0.3-1.4l-0.5-0.2
		L61.2,13z"/>
	<path class="st4" d="M68.4,10.1L68,9.8l0.3-0.4l2.4,1.6c1.5,1.1,1.9,3.2,0.8,4.8c-1.1,1.5-3.1,1.9-4.6,0.9l-2.4-1.6l0.3-0.4
		l0.5,0.2L68.4,10.1z M66.5,15.8c0.1,0.1,0.2,0.2,0.3,0.3c1.5,1,2.5-0.1,3.3-1.3s1.5-2.5-0.1-3.6c-0.1-0.1-0.3-0.2-0.4-0.2
		L66.5,15.8z"/>
	<path class="st4" d="M78.7,17.6L78.4,18c-0.4-0.4-0.8-0.2-1.1,0.2l-2.2,2.3c-0.7,1-2,1.2-3,0.6c-0.2-0.1-0.3-0.3-0.4-0.4
		c-1-0.7-1.2-2-0.5-3c0.1-0.1,0.2-0.2,0.2-0.3l2.9-3.1L74,13.8l0.3-0.4l2,1.8l-0.3,0.4l-0.5-0.4l-2.9,3.1c-0.6,0.4-0.7,1.3-0.3,1.8
		c0.1,0.1,0.1,0.2,0.2,0.2c0.9,0.8,1.7,0.3,2.4-0.4l2-2.2c0.6-0.6,0.4-1,0.1-1.3l0.3-0.4L78.7,17.6z"/>
	<path class="st4" d="M78.6,25.6c-1.1,0.4-2.3,0.1-3.1-0.8c-1-1.3-0.7-3.1,0.6-4.1c0,0,0.1-0.1,0.1-0.1c2.2-1.7,4-1.4,4.9-0.2
		c0.2,0.2,0.3,0.4,0.4,0.7c0.1,0.2,0.1,0.4,0.3,0.5c0.2,0.2,0.3,0.3,0.5,0.3l-1.6,1.7l-0.4-0.3c0.4-0.7,0.9-1.9,0.3-2.7
		s-1.9,0.1-2.4,0.5c-1,0.8-2.7,2.4-1.8,3.5c0.5,0.6,1.4,0.5,2,0.5L78.6,25.6z"/>
	<path class="st4" d="M76.9,26.3l0.4-0.2c0.4,0.5,0.9,0.3,1.4,0.2l4.7-1l0.4-0.6l0.8,1.5l-4.4,4.9l0.2,0.4l-0.4,0.2l-1.3-2.3
		l0.4-0.2l0.3,0.4l1.1-1.1l-1.1-1.9l-0.8,0.2l-0.2,0.1c-0.3,0.2-0.2,0.6-0.1,1L78,28.1L76.9,26.3z M80.1,26.5l0.9,1.6l2.1-2.2l0,0
		L80.1,26.5z"/>
	<path class="st4" d="M87.7,32.5c0.2,0.5,0.4,1,0.6,1.2l-2,1.1L86,34.6c0.8-0.4,1.2-1.3,1-2.2l-5.4,2.1l0.1,0.5l-0.5,0.2l-0.9-2.4
		l0.5-0.2L81,33l5.4-2.1c-0.4-0.9-1.4-1-2.2-0.9l-0.1-0.4l2.2-0.5c0.1,0.4,0.3,0.9,0.4,1.3L87.7,32.5z"/>
	<path class="st4" d="M88.5,35l0.7,2.9L88.7,38l-0.2-0.7l-5.6,1.4l0.1,0.7l-0.5,0.1l-0.7-2.9l0.5-0.1l0.2,0.6l5.6-1.4L88,35.1
		L88.5,35z"/>
	<path class="st4" d="M86.1,39.4c1.8,0,3.2,1.4,3.2,3.2s-1.4,3.2-3.2,3.2c-1.6,0-3-1.2-3.2-2.9C82.8,41.1,84.2,39.5,86.1,39.4
		C86.1,39.4,86.1,39.4,86.1,39.4z M86.6,44.1c1.8-0.2,3-0.6,2.9-1.8s-1.5-1.3-3.2-1.1s-3,0.6-2.9,1.8S84.9,44.3,86.6,44.1z"/>
	<path class="st4" d="M85.3,51.1L85.3,51.1l3.3,0.2c0.6,0,0.9-0.1,1-0.8h0.5l-0.1,2h-0.5c0-0.5-0.4-0.7-0.9-0.8l-5.4-0.3l0.1-0.9
		l5.5-3l0,0l-3.9-0.2c-0.4-0.1-0.8,0.3-0.9,0.7c0,0,0,0.1,0,0.1h-0.5l0.1-2H84c0,0.4,0.4,0.8,0.8,0.7c0,0,0,0,0,0l4.5,0.3
		c0.4,0,0.5-0.4,0.6-0.7h0.5l-0.1,2L85.3,51.1z"/>
	<path class="st4" d="M15.1,67.2l-0.3,0.2c-0.2-0.3-0.5-0.3-0.7-0.1l-1.9,1c-0.6,0.5-1.5,0.4-2-0.2c-0.1-0.1-0.2-0.2-0.2-0.4
		c-0.5-0.6-0.4-1.6,0.3-2c0.1-0.1,0.1-0.1,0.2-0.1l2.5-1.4l-0.1-0.3l0.3-0.2l0.9,1.6l-0.3,0.2L13.5,65L11,66.4
		c-0.6,0.4-0.8,0.8-0.5,1.3c0.4,0.7,1,0.6,1.6,0.2l1.8-1c0.5-0.3,0.4-0.5,0.4-0.8l0.3-0.2L15.1,67.2z"/>
	<path class="st4" d="M14.5,71.7L14.5,71.7l1.8-1.3c0.3-0.2,0.4-0.4,0.2-0.8l0.3-0.2l0.8,1.1l-0.3,0.2c-0.2-0.3-0.5-0.2-0.8,0
		l-3,2.1l-0.4-0.5l1.6-3.9l0,0L12.6,70c-0.3,0.2-0.3,0.5-0.2,0.8c0,0,0,0,0,0L12.2,71l-0.8-1.1l0.3-0.2c0.2,0.2,0.5,0.2,0.7,0.1
		c0,0,0,0,0,0l2.4-1.8c0.2-0.1,0.1-0.4,0-0.6l0.3-0.2l0.8,1.1L14.5,71.7z"/>
	<path class="st4" d="M17.7,70.7l1.3,1.5l-0.2,0.2l-0.3-0.3l-2.9,2.5l0.3,0.4l-0.2,0.2l-1.3-1.5l0.2-0.2l0.3,0.3l2.9-2.5l-0.3-0.4
		L17.7,70.7z"/>
	<path class="st4" d="M20.9,74.2c0.2,0.2,0.4,0.4,0.7,0.6l-0.9,1.2l-0.2-0.1c0.4-0.5,0.4-1.1,0-1.6l-2.8,2.8l0.2,0.3l-0.2,0.2
		l-1.2-1.2l0.2-0.2l0.3,0.2l2.8-2.8c-0.5-0.4-1.1-0.2-1.6,0L18,73.3l1.2-0.9c0.2,0.2,0.4,0.5,0.6,0.7L20.9,74.2z"/>
	<path class="st4" d="M20.3,79.3c0.1,0.1,0.2,0.2,0.3,0.3c0.6,0.5,1.4,0.5,2,0.1l0.2,0.3l-1.3,0.9c-0.2-0.2-0.4-0.5-0.6-0.6l-2-1.6
		l0.2-0.2l0.3,0.2l2.4-3l-0.2-0.2l0.2-0.3l2,1.6c0.2,0.2,0.5,0.4,0.8,0.5l-0.7,1.3l-0.3-0.1c0.2-0.7,0-1.4-0.5-1.9
		c-0.1-0.1-0.2-0.2-0.4-0.3l-1,1.3l0.3,0.2c0.4,0.3,0.7,0,0.9-0.2l0.2,0.2l-1.1,1.4L21.7,79c0.2-0.3,0.4-0.7,0-1l-0.3-0.2L20.3,79.3
		z"/>
	<path class="st4" d="M25.1,78.2l-0.3-0.2l0.2-0.3l1.6,1c1,0.8,1.2,2.2,0.5,3.2c-0.7,0.9-1.9,1.2-2.9,0.7l-1.7-1.1l0.2-0.3l0.3,0.1
		L25.1,78.2z M23.9,82c0.1,0.1,0.1,0.1,0.2,0.2c1,0.7,1.7-0.1,2.2-0.9s1-1.7-0.1-2.4c-0.1-0.1-0.2-0.1-0.2-0.1L23.9,82z"/>
	<path class="st4" d="M29.2,83.8c-0.1,0.7,0.3,1.4,0.9,1.7c0.5,0.2,0.9,0.1,1.1-0.3c0.5-1.1-2-1.6-1.4-3.1c0.2-0.7,1-1.1,1.7-0.8
		c0.1,0,0.1,0,0.2,0.1c0.2,0.1,0.3,0.2,0.4,0.3c0.1,0.1,0.2,0.2,0.3,0.2c0.1,0,0.3,0.1,0.4,0l-0.3,1.3l-0.3-0.1
		c-0.1-0.7-0.1-1.3-0.7-1.6c-0.3-0.2-0.7-0.1-0.9,0.2c0,0,0,0,0,0.1c-0.4,1,2.1,1.5,1.4,3.1c-0.3,0.8-1.2,1.1-1.9,0.8
		c-0.1,0-0.1-0.1-0.2-0.1c-0.5-0.2-0.5-0.5-0.9-0.6c-0.2,0-0.3,0-0.5,0l0.3-1.4L29.2,83.8z"/>
	<path class="st4" d="M36,83c0.3,0.1,0.6,0.2,0.9,0.2l-0.2,1.5h-0.3c0.1-0.6-0.2-1.2-0.7-1.5L34.5,87l0.3,0.1l-0.1,0.3L33,86.9
		l0.1-0.3l0.4,0.1l1.2-3.8c-0.6-0.2-1.1,0.3-1.4,0.8l-0.2-0.1l0.7-1.4c0.2,0.1,0.5,0.2,0.9,0.3L36,83z"/>
	<path class="st4" d="M35.5,87.7l0.1-0.3c0.4,0,0.5-0.3,0.8-0.6L38,84l-0.1-0.5l1.1,0.2l0.4,4.4l0.3,0.1l-0.1,0.3L38,88.3L38,88h0.4
		l-0.1-1.1l-1.5-0.3l-0.3,0.5l-0.1,0.1c0,0.3,0.2,0.4,0.4,0.5L36.9,88L35.5,87.7z M37.1,86.3l1.2,0.3l-0.1-2.1l0,0L37.1,86.3z"/>
	<path class="st4" d="M42.8,84.4c0.3,0,0.6,0.1,0.9,0.1V86h-0.3c-0.1-0.6-0.3-1.2-1-1.3L42,88.6l0.3,0.1V89l-1.7-0.2v-0.3h0.4
		l0.5-3.9c-0.7,0-1,0.5-1.3,1l-0.2-0.1l0.4-1.5c0.3,0.1,0.6,0.1,0.9,0.2L42.8,84.4z"/>
	<path class="st4" d="M45.5,88.8c0.1,0,0.3,0.1,0.4,0.1c0.7,0,1.4-0.4,1.7-1.1l0.3,0.1l-0.4,1.5c-0.3-0.1-0.6-0.1-0.9-0.1l-2.5,0
		v-0.3h0.3l0.1-3.9l-0.4,0v-0.3l2.5,0.1c0.3,0,0.6,0,0.9-0.1l0.3,1.5l-0.3,0C47.3,85.5,46.7,85,46,85h-0.5v1.7h0.4
		c0.4,0,0.5-0.4,0.6-0.7h0.3v1.8h-0.3c0-0.3-0.1-0.8-0.5-0.8h-0.4L45.5,88.8z"/>
	<path class="st4" d="M48.7,87.8c0.3,0.6,0.9,1.1,1.6,1.1c0.5,0,0.9-0.3,0.8-0.8c-0.1-1.2-2.5-0.5-2.7-2.1c-0.1-0.7,0.4-1.4,1.1-1.6
		c0.1,0,0.1,0,0.2,0c0.2,0,0.4,0,0.5,0.1c0.1,0,0.2,0.1,0.4,0.1c0.1,0,0.3-0.1,0.4-0.2l0.4,1.3l-0.3,0.1c-0.4-0.5-0.7-1.1-1.4-1
		c-0.4,0-0.7,0.3-0.7,0.7c0,0,0,0,0,0.1c0.1,1,2.6,0.3,2.7,2.1c0.1,0.8-0.5,1.5-1.3,1.6c-0.1,0-0.2,0-0.2,0c-0.5,0-0.7-0.1-1-0.1
		c-0.2,0-0.3,0.1-0.4,0.2l-0.4-1.4L48.7,87.8z"/>
	<path class="st4" d="M54,86.3c-0.4-1.1,0.2-2.3,1.3-2.7c1.1-0.4,2.3,0.2,2.7,1.3c0,0.1,0.1,0.3,0.1,0.4c0.4,1.1-0.2,2.3-1.3,2.7
		c-1.1,0.4-2.3-0.2-2.7-1.3C54.1,86.6,54.1,86.5,54,86.3z M57.1,85.6c-0.3-1.1-0.7-2-1.5-1.8s-0.8,1.1-0.5,2.2s0.7,2,1.5,1.8
		S57.4,86.8,57.1,85.6z"/>
	<path class="st4" d="M59.5,87.4L59.4,87l0.3-0.2l-1.3-3.6L58,83.3L57.9,83l2.3-0.8c0.3-0.1,0.6-0.2,0.8-0.4l0.8,1.4l-0.2,0.2
		c-0.4-0.6-1.1-0.8-1.8-0.6l-0.4,0.2l0.6,1.6l0.2-0.1c0.5-0.2,0.5-0.5,0.4-0.9l0.3-0.1l0.6,1.7l-0.3,0.1c-0.2-0.4-0.5-0.6-0.9-0.5
		l-0.2,0.1l0.6,1.7l0.4-0.1l0.1,0.3L59.5,87.4z"/>
	<path class="st4" d="M64.6,85.4l-0.1-0.3c0.3-0.2,0.2-0.6,0.2-1l-0.5-3.2l-0.4-0.3l1-0.5l3.2,3.1l0.3-0.1l0.1,0.3l-1.5,0.8
		l-0.1-0.3l0.3-0.2l-0.7-0.8L65,83.6l0.1,0.5c0,0.1,0,0.1,0,0.2c0.1,0.2,0.4,0.2,0.6,0.1l0.2,0.3L64.6,85.4z M64.9,83.3l1.1-0.6
		l-1.5-1.5l0,0L64.9,83.3z"/>
	<path class="st4" d="M68.6,83.3l-0.2-0.3c0.4-0.3,0.3-0.5,0.1-0.8l-1.8-2.8l-0.3,0.2l-0.2-0.3l1.3-0.9l1.9,1.5l0,0l-0.7-2.3
		l1.2-0.8l0.2,0.3l-0.3,0.2l2.2,3.1l0.3-0.2l0.2,0.3l-1.4,1l-0.2-0.3l0.3-0.2l-2-2.9l0,0l0.9,3.2l-0.2,0.2l-2.7-2l0,0l1.1,1.8
		c0.2,0.3,0.3,0.5,0.5,0.8c0.1,0.3,0.4,0.4,0.7,0.3c0,0,0.1,0,0.1-0.1l0.2,0.3L68.6,83.3z"/>
	<path class="st4" d="M74,78.9c0.1-0.1,0.3-0.1,0.4-0.2c0.6-0.5,0.8-1.3,0.5-2l0.3-0.1l0.7,1.4c-0.3,0.1-0.5,0.3-0.7,0.5l-1.9,1.7
		L73,79.8l0.2-0.3l-2.5-2.9l-0.3,0.2l-0.2-0.2l1.9-1.6c0.2-0.2,0.4-0.4,0.6-0.7l1.2,0.9l-0.2,0.2c-0.6-0.3-1.4-0.3-1.9,0.2
		c-0.1,0.1-0.2,0.2-0.3,0.3l1.1,1.2l0.3-0.2c0.3-0.3,0.1-0.7,0-0.9l0.2-0.2l1.2,1.4L74,77.4c-0.3-0.2-0.6-0.5-0.9-0.2l-0.3,0.2
		L74,78.9z"/>
	<path class="st4" d="M73.7,73.9l-0.3,0.2l-0.2-0.2l1.4-1.5c0.6-0.7,1.3-0.9,2-0.3c0.4,0.3,0.5,0.9,0.3,1.3l1.9,0.7l0.2-0.2l0.2,0.2
		l-0.9,0.9l-2.1-0.8c-0.1,0.1-0.2,0.2-0.3,0.3l1.3,1.2l0.3-0.2l0.2,0.2L76.6,77l-0.2-0.2l0.2-0.3L73.7,73.9z M75.7,74.3
		c0.1-0.1,0.2-0.1,0.2-0.2c0.5-0.5,0.2-0.9-0.1-1.2s-0.8-0.5-1.2,0c-0.1,0.1-0.1,0.2-0.2,0.3L75.7,74.3z"/>
	<path class="st4" d="M75.9,70.9l1.2-1.5l0.3,0.2l-0.3,0.4l3,2.4l0.3-0.3l0.3,0.2l-1.2,1.6l-0.3-0.2l0.2-0.4l-3-2.4l-0.3,0.3
		L75.9,70.9z"/>
	<path class="st4" d="M82.1,68.1c0.5,0.6,0.6,1.4,0.2,2.1c-0.6,0.9-1.9,1.1-2.8,0.4c0,0,0,0,0,0c-1.5-1-1.7-2.3-1.2-3.1
		c0.1-0.2,0.2-0.3,0.4-0.4c0.1-0.1,0.2-0.2,0.3-0.3c0.1-0.1,0.1-0.3,0.1-0.4l1.4,0.6l-0.1,0.3c-0.6-0.1-1.4-0.2-1.8,0.4
		s0.4,1.2,0.8,1.5c0.8,0.5,2.1,1.2,2.6,0.4c0.3-0.5,0-1-0.1-1.4L82.1,68.1z"/>
	<path class="st4" d="M83.3,68.5L83,68.4c0.1-0.4-0.1-0.6-0.4-0.9l-2.2-2.3h-0.5l0.5-1l4.4,0.7l0.2-0.2l0.3,0.1l-0.8,1.6l-0.3-0.1
		l0.1-0.4l-1-0.2L82.5,67l0.4,0.4c0,0,0.1,0.1,0.1,0.1c0.2,0.1,0.4-0.1,0.6-0.3l0.3,0.1L83.3,68.5z M82.3,66.7l0.6-1.1l-2-0.4l0,0
		L82.3,66.7z"/>
</g>
</svg>
