<?xml version="1.0" encoding="UTF-8"?>
<svg width="55px" height="80px" viewBox="0 0 55 80" version="1.1" xmlns="http://www.w3.org/2000/svg" xmlns:xlink="http://www.w3.org/1999/xlink">
    <!-- Generator: sketchtool 51.2 (57519) - http://www.bohemiancoding.com/sketch -->
    <title>135B5DC6-061F-485E-ABE9-F8ADEF14E912</title>
    <desc>Created with sketchtool.</desc>
    <defs></defs>
    <g id="Welcome" stroke="none" stroke-width="1" fill="none" fill-rule="evenodd">
        <g id="Desktop" transform="translate(-205.000000, -3941.000000)" fill="#5B616B" fill-rule="nonzero">
            <g id="lightbulb" transform="translate(205.000000, 3941.000000)">
                <path d="M27.4999827,12.5 C27.4999827,13.8807812 26.3806069,15 24.9999811,15 C19.4859151,15 14.9999748,19.4859375 14.9999748,25 C14.9999748,26.3807813 13.8805991,27.5 12.4999732,27.5 C11.1193473,27.5 9.99997162,26.3807813 9.99997162,25 C9.99997162,16.7289062 16.7288821,10 24.9999811,10 C26.3806069,10 27.4999827,11.1192187 27.4999827,12.5 Z M55,27.5 C55,43.3954687 46.9223387,41.8032812 40.8568661,57.6053125 C40.6674613,58.0971624 40.3753389,58.542963 39.9999905,58.9129687 L39.9999905,72.5 L39.997178,72.5 C39.9834768,73.3287233 39.6954936,74.1295368 39.1782713,74.7771875 L36.1259256,78.5926562 C35.4142645,79.4822011 34.3368319,80.0000192 33.1976425,80 L21.8023228,80 C20.6631334,80.0000192 19.5857008,79.4822011 18.8740397,78.5926562 L15.821694,74.7771875 C15.3043987,74.1295776 15.0164063,73.3287383 15.0027873,72.5 L14.9999748,72.5 L14.9999748,58.9067187 C14.6210592,58.5312921 14.3260326,58.0798058 14.1343492,57.5820312 C8.04418913,41.738125 -0.0683159849,43.40125 0.000434058455,27.2973437 C0.0648090991,12.1890625 12.3915356,0 27.4999827,0 C42.686711,0 55,12.3129687 55,27.5 Z M34.9999874,70 L19.9999779,70 L19.9999779,71.9960937 L22.4031044,75 L32.5968609,75 L34.9999874,71.9960937 L34.9999874,70 Z M34.9999874,60 L19.9999779,60 L19.9999779,65 L34.9999874,65 L34.9999874,60 Z M49.9999968,27.5 C49.9999968,15.0640625 39.9337405,5 27.4999827,5 C15.0640373,5 4.99996846,15.0660937 4.99996846,27.5 C4.99996846,41.1679688 11.8974728,38.579375 18.4916957,55 L36.5082696,55 C43.0904612,38.6095313 49.9999968,41.1284375 49.9999968,27.5 Z" id="Shape"></path>
            </g>
        </g>
    </g>
</svg>