<?xml version="1.0" encoding="UTF-8"?>
<svg width="91px" height="80px" viewBox="0 0 91 80" version="1.1" xmlns="http://www.w3.org/2000/svg" xmlns:xlink="http://www.w3.org/1999/xlink">
    <!-- Generator: sketchtool 51.2 (57519) - http://www.bohemiancoding.com/sketch -->
    <title>452A46AD-C7B9-468B-A5FA-EC2CCDAE045B</title>
    <desc>Created with sketchtool.</desc>
    <defs></defs>
    <g id="Welcome" stroke="none" stroke-width="1" fill="none" fill-rule="evenodd">
        <g id="Desktop" transform="translate(-469.000000, -9875.000000)" fill="#5B616B" fill-rule="nonzero">
            <g id="What-is-CRDC-Divider" transform="translate(125.000000, 9875.000000)">
                <g id="university" transform="translate(344.000000, 0.000000)">
                    <path d="M88.15625,74.2857144 L85.3125,74.2857144 L85.3125,67.1428574 C85.3125,64.7758931 83.4027441,62.8571432 81.046875,62.8571432 L73.9375,62.8571432 L73.9375,31.4285723 L68.25,31.4285723 L68.25,62.8571432 L56.875,62.8571432 L56.875,31.4285723 L51.1875,31.4285723 L51.1875,62.8571432 L39.8125,62.8571432 L39.8125,31.4285723 L34.125,31.4285723 L34.125,62.8571432 L22.75,62.8571432 L22.75,31.4285723 L17.0625,31.4285723 L17.0625,62.8571432 L9.953125,62.8571432 C7.59725586,62.8571432 5.6875,64.7758931 5.6875,67.1428574 L5.6875,74.2857144 L2.84375,74.2857144 C1.27311133,74.2857144 0,75.5648215 0,77.1428572 L0,78.5714286 C9.6169049e-17,79.3604068 0.636595121,80 1.421875,80 L89.578125,80 C90.3634049,80 91,79.3604068 91,78.5714286 L91,77.1428572 C91,75.5648215 89.7268887,74.2857144 88.15625,74.2857144 Z M11.375,68.5714288 L79.625,68.5714288 L79.625,74.2857144 L11.375,74.2857144 L11.375,68.5714288 Z M89.6255801,18.5714296 L48.1978301,0.439822805 C46.446632,-0.146607602 44.553368,-0.146607602 42.8021699,0.439822805 L1.37441992,18.5714296 C0.546900133,18.8876856 -7.04300852e-05,19.684752 0,20.5742867 L0,22.1428581 C0,23.326251 0.954966797,24.2857152 2.1328125,24.2857152 L5.6875,24.2857152 L5.6875,26.4285724 C5.6875,27.6119652 6.6424668,28.5714295 7.8203125,28.5714295 L83.1796875,28.5714295 C84.3575332,28.5714295 85.3125,27.6119652 85.3125,26.4285724 L85.3125,24.2857152 L88.8671875,24.2857152 C90.0450332,24.2857152 91,23.326251 91,22.1428581 L91,20.5742867 C91,19.6846439 90.4531113,18.8876796 89.6255801,18.5714296 Z M79.625,22.8571438 L11.375,22.8571438 L11.375,20.427501 L44.7789316,5.80767986 C45.2516624,5.683213 45.7483376,5.683213 46.2210684,5.80767986 L79.625,20.427501 L79.625,22.8571438 Z" id="Shape"></path>
                </g>
            </g>
        </g>
    </g>
</svg>